# xmcd CD database file
#
# Track frame offsets:
#	150
#	18690
#	31695
#	49808
#	65753
#	82859
#	93446
#	101895
#	114780
#	129475
#	141386
#	155239
#	171724
#	185571
#	195367
#	216234
#	224597
#	252735
#	261108
#	278165
#	292788
#	314237
#
# Disc length: 4481 seconds
#
# Revision: 0
# Processed by: cddbd v1.4PL0 Copyright (c) Steve Scherf et al.
# Submitted via: Feurio! 1.66 - http://www.feurio.com
#
DISCID=5d117f16
DTITLE=Sertaneja - Bailâo dos Cafagestes
DYEAR=1900
DGENRE=
TTITLE0=28 Sucessos  Vol. 11 - Faz parte
TTITLE1=28 Sucessos  Vol. 11 - Na palma da mâo
TTITLE2=28 Sucessos  Vol. 11 - Chiqui du urtimo
TTITLE3=28 Sucessos  Vol. 11 - Noite fria
TTITLE4=28 Sucessos  Vol. 11 - Estou de volta
TTITLE5=28 Sucessos  Vol. 11 - Clima de rodeio
TTITLE6=28 Sucessos  Vol. 11 - Bailâo ta legal
TTITLE7=28 Sucessos  Vol. 11 - El pissiu
TTITLE8=28 Sucessos  Vol. 11 - Ta liberado - Credo em cruz Ave Maria
TTITLE9=28 Sucessos  Vol. 11 - Nois Tropica mais nao cai
TTITLE10=28 Sucessos  Vol. 11 - Onde tem fumaça tem fogo
TTITLE11=28 Sucessos  Vol. 11 - O amor e poderoso - Bota p´ra moer
TTITLE12=28 Sucessos  Vol. 11 - Meu Barraco caiu - Rabada da cunhada
TTITLE13=28 Sucessos  Vol. 11 - Da, da ,da
TTITLE14=28 Sucessos  Vol. 11 - Melo da bicicleta - Menina Aurora
TTITLE15=28 Sucessos  Vol. 11 - Mistura de Ritmos
TTITLE16=28 Sucessos  Vol. 11 - a) Bate mais em mim - Feia que doi - Muita 
TTITLE16=coisa na cabeça (Pout-Pourri)
TTITLE17=28 Sucessos  Vol. 11 - Senhorita
TTITLE18=28 Sucessos  Vol. 11 - E o vento levou
TTITLE19=28 Sucessos  Vol. 11 - Amor perfeito (Ao vivo)
TTITLE20=28 Sucessos  Vol. 11 - Jogo de Sinuca (Ao vivo)
TTITLE21=28 Sucessos  Vol. 11 - Dança do Siri Mole (Ao vivo)
EXTD=
EXTT0=
EXTT1=
EXTT2=
EXTT3=
EXTT4=
EXTT5=
EXTT6=
EXTT7=
EXTT8=
EXTT9=
EXTT10=
EXTT11=
EXTT12=
EXTT13=
EXTT14=
EXTT15=
EXTT16=
EXTT17=
EXTT18=
EXTT19=
EXTT20=
EXTT21=
PLAYORDER=
